<?xml version="1.0" standalone="no"?>
<!DOCTYPE svg PUBLIC "-//W3C//DTD SVG 20010904//EN"
 "http://www.w3.org/TR/2001/REC-SVG-20010904/DTD/svg10.dtd">
<svg version="1.0" xmlns="http://www.w3.org/2000/svg"
 width="81.000000pt" height="21.000000pt" viewBox="0 0 81.000000 21.000000"
 preserveAspectRatio="xMidYMid meet">

<g transform="translate(0.000000,21.000000) scale(0.100000,-0.100000)"
fill="#000000" stroke="none">
<path d="M47 162 c-32 -35 -19 -61 37 -79 17 -5 32 -15 34 -21 6 -18 -45 -15
-52 3 -8 22 -36 18 -36 -5 0 -24 28 -40 69 -40 40 0 68 38 51 69 -6 12 -15 21
-20 21 -5 0 -21 5 -36 10 -20 8 -24 14 -16 22 9 9 16 7 30 -5 25 -23 42 -21
42 3 0 39 -74 54 -103 22z"/>
<path d="M239 161 c-50 -40 -20 -141 41 -140 14 0 40 0 58 0 33 0 33 0 30 42
-3 39 -5 42 -35 45 -24 2 -33 -1 -33 -12 0 -8 5 -16 12 -18 17 -6 0 -28 -22
-28 -25 0 -42 33 -34 64 8 32 31 40 60 21 13 -8 28 -15 34 -15 18 0 11 28 -12
44 -30 21 -71 20 -99 -3z"/>
<path d="M380 100 c0 -73 2 -80 20 -80 15 0 20 7 20 25 0 19 5 25 23 25 31 0
67 27 67 51 0 14 7 19 25 19 24 0 25 -3 25 -60 0 -53 2 -60 20 -60 18 0 20 7
20 60 0 58 1 60 26 60 19 0 25 5 22 18 -3 14 -16 18 -71 20 -41 2 -67 -1 -67
-7 0 -7 -8 -7 -26 -1 -14 6 -43 10 -65 10 l-39 0 0 -80z m79 41 c19 -12 6 -41
-19 -41 -15 0 -20 7 -20 25 0 26 14 31 39 16z"/>
<path d="M668 168 c5 -7 12 -22 15 -33 4 -19 5 -18 6 2 2 31 21 39 21 9 0 -32
16 -34 24 -3 9 36 8 37 -35 37 -32 0 -39 -3 -31 -12z"/>
<path d="M752 155 c-15 -32 -15 -35 -2 -35 6 0 10 8 11 18 0 14 2 14 9 -3 7
-17 9 -15 9 13 1 38 -11 42 -27 7z"/>
<path d="M164 49 c-10 -17 13 -36 27 -22 12 12 4 33 -11 33 -5 0 -12 -5 -16
-11z"/>
</g>
</svg>
